<?xml version="1.0" standalone="no"?>
<!DOCTYPE svg PUBLIC "-//W3C//DTD SVG 20010904//EN"
 "http://www.w3.org/TR/2001/REC-SVG-20010904/DTD/svg10.dtd">
<svg version="1.0" xmlns="http://www.w3.org/2000/svg"
 width="800.000000pt" height="800.000000pt" viewBox="0 0 800.000000 800.000000"
 preserveAspectRatio="xMidYMid meet">
<metadata>
Created by potrace 1.11, written by Peter Selinger 2001-2013
</metadata>
<g transform="translate(0.000000,800.000000) scale(0.100000,-0.100000)"
fill="#000000" stroke="none">
<path d="M5240 5630 l0 -2065 233 -231 232 -232 607 617 607 616 1 353 c0 193
-3 352 -7 352 -5 -1 -278 -268 -608 -594 l-600 -594 -3 1692 -2 1691 -230 230
-230 230 0 -2065z"/>
<path d="M4750 6108 l-229 -223 0 -1958 c-1 -1077 3 -1957 7 -1955 5 2 110
109 235 238 l226 235 1 1943 c0 1068 -2 1942 -5 1942 -3 0 -109 -100 -235
-222z"/>
<path d="M3317 5912 l-227 -227 0 -1858 c0 -1022 3 -1857 8 -1855 4 2 107 107
229 233 l222 230 1 1853 c0 1018 -1 1852 -3 1852 -1 0 -105 -102 -230 -228z"/>
<path d="M3912 5718 l-102 -113 0 -1936 0 -1936 111 -99 c61 -54 116 -101 121
-103 6 -2 59 45 119 105 l109 109 0 1940 0 1940 -118 99 c-65 55 -123 101
-129 103 -5 2 -56 -47 -111 -109z"/>
<path d="M1090 4678 l1 -363 647 -502 c356 -276 656 -509 667 -517 19 -14 -13
-48 -652 -688 l-673 -673 0 -815 1 -815 210 215 c115 118 230 239 256 268 l46
52 6 438 6 438 615 -631 615 -631 3 370 2 371 -442 442 -441 442 168 173 c92
95 291 300 441 454 l274 281 0 361 0 360 -867 666 c-478 366 -871 666 -875
666 -5 0 -8 -163 -8 -362z"/>
</g>
</svg>
